<svg width="339" height="123" viewBox="0 0 339 123" fill="none" xmlns="http://www.w3.org/2000/svg">
<mask id="mask0_3082_1404" style="mask-type:luminance" maskUnits="userSpaceOnUse" x="97" y="27" width="61" height="61">
<path d="M97.7383 27.6875H157.306V87.2604H97.7383V27.6875Z" fill="white"/>
</mask>
<g mask="url(#mask0_3082_1404)">
<mask id="mask1_3082_1404" style="mask-type:luminance" maskUnits="userSpaceOnUse" x="97" y="27" width="61" height="61">
<path d="M127.52 27.6875C111.072 27.6875 97.7383 41.026 97.7383 57.474C97.7383 73.9271 111.072 87.2604 127.52 87.2604C143.973 87.2604 157.306 73.9271 157.306 57.474C157.306 41.026 143.973 27.6875 127.52 27.6875Z" fill="white"/>
</mask>
<g mask="url(#mask1_3082_1404)">
<path d="M97.7383 27.6875H157.306V87.2604H97.7383V27.6875Z" fill="#065033"/>
</g>
</g>
<mask id="mask2_3082_1404" style="mask-type:luminance" maskUnits="userSpaceOnUse" x="75" y="44" width="105" height="49">
<path d="M75.5879 44.5156H179.64V92.8646H75.5879V44.5156Z" fill="white"/>
</mask>
<g mask="url(#mask2_3082_1404)">
<mask id="mask3_3082_1404" style="mask-type:luminance" maskUnits="userSpaceOnUse" x="75" y="44" width="105" height="49">
<path d="M127.52 44.5156L179.458 92.8646H75.5879L127.52 44.5156Z" fill="white"/>
</mask>
<g mask="url(#mask3_3082_1404)">
<path d="M98 57.5C98 41.2076 111.208 28 127.5 28V28C143.792 28 157 41.2076 157 57.5V57.5C157 73.7924 143.792 87 127.5 87V87C111.208 87 98 73.7924 98 57.5V57.5Z" fill="white"/>
</g>
</g>
<mask id="mask4_3082_1404" style="mask-type:luminance" maskUnits="userSpaceOnUse" x="120" y="63" width="8" height="8">
<path d="M120.297 63.3438H127.667V70.3333H120.297V63.3438Z" fill="white"/>
</mask>
<g mask="url(#mask4_3082_1404)">
<path d="M126.568 63.3438H120.594C120.427 63.3438 120.297 63.474 120.297 63.6406V69.6146C120.297 69.7813 120.427 69.9167 120.594 69.9167H126.568C126.734 69.9167 126.87 69.7813 126.87 69.6146V63.6406C126.87 63.474 126.734 63.3438 126.568 63.3438Z" fill="black"/>
</g>
<mask id="mask5_3082_1404" style="mask-type:luminance" maskUnits="userSpaceOnUse" x="127" y="63" width="9" height="8">
<path d="M127.666 63.3438H135.234V70.3333H127.666V63.3438Z" fill="white"/>
</mask>
<g mask="url(#mask5_3082_1404)">
<path d="M134.936 63.3438H128.957C128.796 63.3438 128.66 63.474 128.66 63.6406V69.6146C128.66 69.7813 128.796 69.9167 128.957 69.9167H134.936C135.098 69.9167 135.233 69.7813 135.233 69.6146V63.6406C135.233 63.474 135.098 63.3438 134.936 63.3438Z" fill="black"/>
</g>
<mask id="mask6_3082_1404" style="mask-type:luminance" maskUnits="userSpaceOnUse" x="120" y="71" width="8" height="8">
<path d="M120.297 71.6667H127.667V78.2813H120.297V71.6667Z" fill="white"/>
</mask>
<g mask="url(#mask6_3082_1404)">
<path d="M126.568 71.7084H120.594C120.427 71.7084 120.297 71.8438 120.297 72.0052V77.9844C120.297 78.1459 120.427 78.2813 120.594 78.2813H126.568C126.734 78.2813 126.87 78.1459 126.87 77.9844V72.0052C126.87 71.8438 126.734 71.7084 126.568 71.7084Z" fill="black"/>
</g>
<mask id="mask7_3082_1404" style="mask-type:luminance" maskUnits="userSpaceOnUse" x="127" y="71" width="9" height="8">
<path d="M127.666 71.6667H135.234V78.2813H127.666V71.6667Z" fill="white"/>
</mask>
<g mask="url(#mask7_3082_1404)">
<path d="M134.936 71.7084H128.957C128.796 71.7084 128.66 71.8438 128.66 72.0052V77.9844C128.66 78.1459 128.796 78.2813 128.957 78.2813H134.936C135.098 78.2813 135.233 78.1459 135.233 77.9844V72.0052C135.233 71.8438 135.098 71.7084 134.936 71.7084Z" fill="black"/>
</g>
<path d="M49.918 37.0961C54.444 42.044 56.7096 48.1065 56.7096 55.2836C56.7096 62.4659 54.444 68.544 49.918 73.5128C45.3867 78.4867 39.6263 80.9711 32.6263 80.9711C26.2096 80.9711 20.9232 78.9607 16.7721 74.9294V104.117H0.0429688V31.0961H16.5638V36.5753H16.7721C20.9232 31.9815 26.2096 29.6794 32.6263 29.6794C39.6263 29.6794 45.3867 32.1534 49.918 37.0961ZM35.6888 63.4919C37.8659 61.3565 38.9596 58.6169 38.9596 55.2836C38.9596 51.9399 37.918 49.2159 35.8346 47.1169C33.7617 45.0076 31.0273 43.9503 27.6263 43.9503C24.3451 43.9503 21.6523 45.0232 19.543 47.1586C17.4284 49.2992 16.3763 52.0076 16.3763 55.2836C16.3763 58.6169 17.4596 61.3565 19.6263 63.4919C21.8034 65.6326 24.4701 66.7003 27.6263 66.7003C30.8346 66.7003 33.5221 65.6326 35.6888 63.4919Z" fill="#065033"/>
<path d="M58.8867 79.5544V31.0961H75.6159V38.0961H75.8034C75.9284 37.8357 76.1263 37.5128 76.4076 37.1378C76.6836 36.7628 77.293 36.1065 78.2409 35.1586C79.1992 34.2159 80.2096 33.3669 81.2826 32.6169C82.3503 31.8565 83.7305 31.1742 85.4284 30.5753C87.1367 29.9815 88.8659 29.6794 90.6159 29.6794C92.4492 29.6794 94.2461 29.9399 96.0117 30.4503C97.7721 30.9503 99.0638 31.4503 99.8867 31.9503L101.199 32.7003L94.2201 46.8669C92.1367 45.1065 89.2409 44.2211 85.5326 44.2211C83.5169 44.2211 81.7826 44.669 80.3242 45.5544C78.8763 46.4294 77.8555 47.5024 77.2617 48.7628C76.6628 50.0284 76.2409 51.1065 75.9909 51.9919C75.7409 52.8669 75.6159 53.5544 75.6159 54.0544V79.5544H58.8867Z" fill="#065033"/>
<path d="M210.439 36.433C214.965 41.3809 217.231 47.4434 217.231 54.6205C217.231 61.8028 214.965 67.8809 210.439 72.8497C205.908 77.8237 200.148 80.308 193.148 80.308C186.731 80.308 181.445 78.2976 177.294 74.2664V103.454H160.564V30.433H177.085V35.9122H177.294C181.445 31.3184 186.731 29.0164 193.148 29.0164C200.148 29.0164 205.908 31.4903 210.439 36.433ZM196.21 62.8289C198.387 60.6934 199.481 57.9539 199.481 54.6205C199.481 51.2768 198.439 48.5528 196.356 46.4539C194.283 44.3445 191.549 43.2872 188.148 43.2872C184.867 43.2872 182.174 44.3601 180.064 46.4955C177.95 48.6361 176.898 51.3445 176.898 54.6205C176.898 57.9539 177.981 60.6934 180.148 62.8289C182.325 64.9695 184.992 66.0372 188.148 66.0372C191.356 66.0372 194.044 64.9695 196.21 62.8289Z" fill="black"/>
<path d="M219.414 78.8914V30.433H236.143V37.433H236.331C236.456 37.1726 236.654 36.8497 236.935 36.4747C237.211 36.0997 237.82 35.4434 238.768 34.4955C239.727 33.5528 240.737 32.7039 241.81 31.9539C242.878 31.1934 244.258 30.5111 245.956 29.9122C247.664 29.3184 249.393 29.0164 251.143 29.0164C252.977 29.0164 254.773 29.2768 256.539 29.7872C258.299 30.2872 259.591 30.7872 260.414 31.2872L261.727 32.0372L254.747 46.2039C252.664 44.4434 249.768 43.558 246.06 43.558C244.044 43.558 242.31 44.0059 240.852 44.8914C239.404 45.7664 238.383 46.8393 237.789 48.0997C237.19 49.3653 236.768 50.4434 236.518 51.3289C236.268 52.2039 236.143 52.8914 236.143 53.3914V78.8914H219.414Z" fill="black"/>
<path d="M262.391 3.43298C264.35 1.47465 266.683 0.495483 269.391 0.495483C272.1 0.495483 274.423 1.47465 276.37 3.43298C278.329 5.3809 279.308 7.70382 279.308 10.4122C279.308 13.1205 278.329 15.4538 276.37 17.4122C274.423 19.3601 272.1 20.3288 269.391 20.3288C266.683 20.3288 264.35 19.3601 262.391 17.4122C260.443 15.4538 259.475 13.1205 259.475 10.4122C259.475 7.70382 260.443 5.3809 262.391 3.43298ZM260.787 30.433V78.8913H277.516V30.433H260.787Z" fill="black"/>
<path d="M288.23 73.1414C282.839 68.3497 280.146 62.2143 280.146 54.7247C280.146 47.2247 282.943 41.0684 288.542 36.2455C294.152 31.4278 301.084 29.0164 309.334 29.0164C317.459 29.0164 324.303 31.4434 329.876 36.2872C335.459 41.1361 338.251 47.2768 338.251 54.7039C338.251 62.1362 335.521 68.2612 330.063 73.0789C324.615 77.9018 317.709 80.308 309.334 80.308C300.652 80.308 293.615 77.9226 288.23 73.1414ZM301.167 46.4955C299.001 48.6361 297.917 51.3809 297.917 54.7247C297.917 58.058 298.949 60.782 301.021 62.8914C303.105 64.9903 305.844 66.0372 309.251 66.0372C312.527 66.0372 315.214 64.9695 317.313 62.8289C319.423 60.6934 320.48 57.9851 320.48 54.7039C320.48 51.3705 319.386 48.6361 317.209 46.4955C315.042 44.3601 312.386 43.2872 309.251 43.2872C306.042 43.2872 303.344 44.3601 301.167 46.4955Z" fill="black"/>
<path d="M276.164 99.8082V118.871H286.435V122.662H271.664V99.8082H276.164Z" fill="black"/>
<path d="M291.831 103.371C291.05 103.371 290.415 103.136 289.915 102.662C289.425 102.178 289.186 101.558 289.186 100.808C289.186 100.074 289.425 99.4696 289.915 98.9957C290.415 98.5269 291.05 98.2874 291.831 98.2874C292.342 98.2874 292.8 98.4019 293.206 98.6207C293.623 98.829 293.941 99.1311 294.165 99.5165C294.383 99.8915 294.498 100.324 294.498 100.808C294.498 101.308 294.383 101.756 294.165 102.142C293.941 102.517 293.623 102.819 293.206 103.037C292.8 103.261 292.342 103.371 291.831 103.371ZM289.665 122.662V105.433H293.998V122.662H289.665Z" fill="black"/>
<path d="M298.945 122.662V105.433H303.112V107.954L303.445 108.037C304.513 106.079 306.247 105.1 308.654 105.1C310.638 105.1 312.096 105.642 313.029 106.725C313.971 107.808 314.445 109.386 314.445 111.454V122.662H310.112V111.996C310.112 110.845 309.883 110.017 309.424 109.517C308.966 109.006 308.227 108.746 307.216 108.746C305.977 108.746 305.013 109.152 304.32 109.954C303.622 110.761 303.279 112.027 303.279 113.746V122.662H298.945Z" fill="black"/>
<path d="M319.133 122.662V98.4957H323.466V111.912H323.883L328.883 105.433H333.258V105.787L327.404 113.35L333.924 122.267V122.662H329.362L323.883 115.392H323.466V122.662H319.133Z" fill="black"/>
</svg>
