<svg width="125" height="46" viewBox="0 0 125 46" fill="none" xmlns="http://www.w3.org/2000/svg">
<g clip-path="url(#clip0_2381_4577)">
<mask id="mask0_2381_4577" style="mask-type:luminance" maskUnits="userSpaceOnUse" x="36" y="10" width="23" height="23">
<path d="M36.0391 10.3555H58.0036V32.6348H36.0391V10.3555Z" fill="white"/>
</mask>
<g mask="url(#mask0_2381_4577)">
<mask id="mask1_2381_4577" style="mask-type:luminance" maskUnits="userSpaceOnUse" x="36" y="10" width="23" height="23">
<path d="M47.0205 10.3555C40.9556 10.3555 36.0391 15.3439 36.0391 21.4951C36.0391 27.6483 40.9556 32.6348 47.0205 32.6348C53.0873 32.6348 58.0036 27.6483 58.0036 21.4951C58.0036 15.3439 53.0873 10.3555 47.0205 10.3555Z" fill="white"/>
</mask>
<g mask="url(#mask1_2381_4577)">
<path d="M36.0391 10.3555H58.0036V32.6348H36.0391V10.3555Z" fill="#4B73FF"/>
</g>
</g>
<mask id="mask2_2381_4577" style="mask-type:luminance" maskUnits="userSpaceOnUse" x="27" y="16" width="40" height="19">
<path d="M27.8711 16.6484H66.2384V34.7302H27.8711V16.6484Z" fill="white"/>
</mask>
<g mask="url(#mask2_2381_4577)">
<mask id="mask3_2381_4577" style="mask-type:luminance" maskUnits="userSpaceOnUse" x="27" y="16" width="40" height="19">
<path d="M47.0201 16.6484L66.1713 34.7302H27.8711L47.0201 16.6484Z" fill="white"/>
</mask>
<g mask="url(#mask3_2381_4577)">
<path d="M36.1367 21.5052C36.1367 15.4121 41.0069 10.4727 47.0143 10.4727C53.0217 10.4727 57.8919 15.4121 57.8919 21.5052C57.8919 27.5983 53.0217 32.5377 47.0143 32.5377C41.0069 32.5377 36.1367 27.5983 36.1367 21.5052Z" fill="#071857"/>
</g>
</g>
<mask id="mask4_2381_4577" style="mask-type:luminance" maskUnits="userSpaceOnUse" x="44" y="23" width="4" height="4">
<path d="M44.3555 23.6895H47.073V26.3034H44.3555V23.6895Z" fill="white"/>
</mask>
<g mask="url(#mask4_2381_4577)">
<path d="M46.6678 23.6895H44.465C44.4034 23.6895 44.3555 23.7381 44.3555 23.8005V26.0346C44.3555 26.097 44.4034 26.1476 44.465 26.1476H46.6678C46.729 26.1476 46.7791 26.097 46.7791 26.0346V23.8005C46.7791 23.7381 46.729 23.6895 46.6678 23.6895Z" fill="white"/>
</g>
<mask id="mask5_2381_4577" style="mask-type:luminance" maskUnits="userSpaceOnUse" x="47" y="23" width="3" height="4">
<path d="M47.0742 23.6895H49.8648V26.3034H47.0742V23.6895Z" fill="white"/>
</mask>
<g mask="url(#mask5_2381_4577)">
<path d="M49.7556 23.6895H47.5509C47.4916 23.6895 47.4414 23.7381 47.4414 23.8005V26.0346C47.4414 26.097 47.4916 26.1476 47.5509 26.1476H49.7556C49.8153 26.1476 49.8651 26.097 49.8651 26.0346V23.8005C49.8651 23.7381 49.8153 23.6895 49.7556 23.6895Z" fill="white"/>
</g>
<mask id="mask6_2381_4577" style="mask-type:luminance" maskUnits="userSpaceOnUse" x="44" y="26" width="4" height="4">
<path d="M44.3555 26.8027H47.073V29.2765H44.3555V26.8027Z" fill="white"/>
</mask>
<g mask="url(#mask6_2381_4577)">
<path d="M46.6678 26.8184H44.465C44.4034 26.8184 44.3555 26.869 44.3555 26.9294V29.1655C44.3555 29.2259 44.4034 29.2765 44.465 29.2765H46.6678C46.729 29.2765 46.7791 29.2259 46.7791 29.1655V26.9294C46.7791 26.869 46.729 26.8184 46.6678 26.8184Z" fill="white"/>
</g>
<mask id="mask7_2381_4577" style="mask-type:luminance" maskUnits="userSpaceOnUse" x="47" y="26" width="3" height="4">
<path d="M47.0742 26.8027H49.8648V29.2765H47.0742V26.8027Z" fill="white"/>
</mask>
<g mask="url(#mask7_2381_4577)">
<path d="M49.7556 26.8184H47.5509C47.4916 26.8184 47.4414 26.869 47.4414 26.9294V29.1655C47.4414 29.2259 47.4916 29.2765 47.5509 29.2765H49.7556C49.8153 29.2765 49.8651 29.2259 49.8651 29.1655V26.9294C49.8651 26.869 49.8153 26.8184 49.7556 26.8184Z" fill="white"/>
</g>
<path d="M18.4061 13.8733C20.075 15.7238 20.9104 17.991 20.9104 20.6752C20.9104 23.3612 20.075 25.6343 18.4061 27.4926C16.7353 29.3527 14.6112 30.2819 12.0301 30.2819C9.66409 30.2819 7.71482 29.53 6.18418 28.0224V38.9381H0.015625V11.6294H6.10738V13.6786H6.18418C7.71482 11.9606 9.66409 11.0996 12.0301 11.0996C14.6112 11.0996 16.7353 12.0248 18.4061 13.8733ZM13.1594 23.7449C13.9621 22.9463 14.3654 21.9218 14.3654 20.6752C14.3654 19.4247 13.9813 18.4059 13.2131 17.621C12.4488 16.8321 11.4405 16.4367 10.1865 16.4367C8.97659 16.4367 7.98367 16.8379 7.2059 17.6365C6.42618 18.4371 6.03824 19.45 6.03824 20.6752C6.03824 21.9218 6.43769 22.9463 7.23662 23.7449C8.03938 24.5455 9.02268 24.9448 10.1865 24.9448C11.3695 24.9448 12.3604 24.5455 13.1594 23.7449Z" fill="#4B73FF"/>
<path d="M21.7148 29.752V11.6294H27.8834V14.2473H27.9526C27.9987 14.1499 28.0716 14.0292 28.1754 13.8889C28.2771 13.7487 28.5018 13.5032 28.8513 13.1487C29.2047 12.7962 29.5773 12.4787 29.9729 12.1982C30.3666 11.9138 30.8755 11.6586 31.5016 11.4347C32.1315 11.2126 32.7691 11.0996 33.4144 11.0996C34.0904 11.0996 34.753 11.197 35.404 11.3879C36.0531 11.5749 36.5294 11.7619 36.8328 11.9489L37.3167 12.2294L34.7434 17.5275C33.9752 16.8691 32.9074 16.538 31.54 16.538C30.7968 16.538 30.1573 16.7055 29.6195 17.0366C29.0856 17.3638 28.7092 17.7651 28.4903 18.2365C28.2695 18.7098 28.1139 19.113 28.0217 19.4441C27.9295 19.7714 27.8834 20.0285 27.8834 20.2155V29.752H21.7148Z" fill="#4B73FF"/>
<path d="M77.5936 13.6252C79.2625 15.4757 80.098 17.743 80.098 20.4271C80.098 23.1131 79.2625 25.3863 77.5936 27.2445C75.9229 29.1047 73.799 30.0338 71.2179 30.0338C68.8517 30.0338 66.9026 29.2819 65.372 27.7743V38.69H59.2031V11.3813H65.2949V13.4305H65.372C66.9026 11.7125 68.8517 10.8516 71.2179 10.8516C73.799 10.8516 75.9229 11.7768 77.5936 13.6252ZM72.3469 23.4969C73.1497 22.6982 73.5531 21.6737 73.5531 20.4271C73.5531 19.1766 73.1688 18.1579 72.4008 17.3729C71.6364 16.584 70.6283 16.1886 69.3742 16.1886C68.1644 16.1886 67.1714 16.5899 66.3934 17.3885C65.6139 18.189 65.226 19.2019 65.226 20.4271C65.226 21.6737 65.6253 22.6982 66.4244 23.4969C67.2271 24.2974 68.2105 24.6967 69.3742 24.6967C70.5571 24.6967 71.5483 24.2974 72.3469 23.4969Z" fill="#071857"/>
<path d="M80.9062 29.504V11.3813H87.0748V13.9992H87.1441C87.1902 13.9018 87.2632 13.7811 87.3668 13.6408C87.4686 13.5006 87.6931 13.2552 88.0427 12.9007C88.3963 12.5481 88.7687 12.2306 89.1644 11.9501C89.5582 11.6657 90.067 11.4106 90.6931 11.1866C91.3229 10.9645 91.9605 10.8516 92.6057 10.8516C93.282 10.8516 93.9442 10.9489 94.5954 11.1398C95.2444 11.3268 95.7208 11.5138 96.0242 11.7008L96.5084 11.9813L93.9346 17.2794C93.1666 16.621 92.0987 16.2899 90.7315 16.2899C89.9881 16.2899 89.3487 16.4574 88.8111 16.7886C88.2772 17.1158 87.9007 17.517 87.6817 17.9884C87.4608 18.4617 87.3052 18.8649 87.213 19.1961C87.1209 19.5233 87.0748 19.7804 87.0748 19.9674V29.504H80.9062Z" fill="#071857"/>
<path d="M96.751 1.28412C97.4733 0.551739 98.3336 0.185547 99.3321 0.185547C100.331 0.185547 101.188 0.551739 101.905 1.28412C102.628 2.01261 102.989 2.88135 102.989 3.89424C102.989 4.9071 102.628 5.77971 101.905 6.51212C101.188 7.24061 100.331 7.60288 99.3321 7.60288C98.3336 7.60288 97.4733 7.24061 96.751 6.51212C96.0327 5.77971 95.6758 4.9071 95.6758 3.89424C95.6758 2.88135 96.0327 2.01261 96.751 1.28412ZM96.1596 11.3817V29.5043H102.328V11.3817H96.1596Z" fill="#071857"/>
<path d="M106.278 27.3536C104.29 25.5616 103.297 23.267 103.297 20.466C103.297 17.6612 104.328 15.3588 106.393 13.5551C108.461 11.7534 111.017 10.8516 114.059 10.8516C117.055 10.8516 119.579 11.7592 121.634 13.5707C123.693 15.3841 124.722 17.6807 124.722 20.4583C124.722 23.2378 123.715 25.5285 121.703 27.3302C119.694 29.1339 117.148 30.0338 114.059 30.0338C110.858 30.0338 108.263 29.1417 106.278 27.3536ZM111.048 17.3885C110.249 18.189 109.85 19.2155 109.85 20.466C109.85 21.7126 110.23 22.7314 110.994 23.5203C111.763 24.3052 112.773 24.6967 114.029 24.6967C115.237 24.6967 116.228 24.2974 117.002 23.4969C117.78 22.6982 118.169 21.6854 118.169 20.4583C118.169 19.2116 117.766 18.189 116.963 17.3885C116.164 16.5899 115.185 16.1886 114.029 16.1886C112.846 16.1886 111.851 16.5899 111.048 17.3885Z" fill="#071857"/>
<path d="M101.831 37.3262V44.4554H105.618V45.8731H100.172V37.3262H101.831Z" fill="#071857"/>
<path d="M107.608 38.659C107.32 38.659 107.086 38.5711 106.902 38.3938C106.721 38.2128 106.633 37.981 106.633 37.7005C106.633 37.426 106.721 37.1999 106.902 37.0227C107.086 36.8474 107.32 36.7578 107.608 36.7578C107.797 36.7578 107.965 36.8006 108.115 36.8825C108.269 36.9604 108.386 37.0733 108.469 37.2175C108.549 37.3577 108.592 37.5195 108.592 37.7005C108.592 37.8875 108.549 38.055 108.469 38.1994C108.386 38.3396 108.269 38.4526 108.115 38.5341C107.965 38.6179 107.797 38.659 107.608 38.659ZM106.809 45.8735V39.4302H108.407V45.8735H106.809Z" fill="#071857"/>
<path d="M110.23 45.8745V39.4312H111.767V40.374L111.89 40.405C112.284 39.6728 112.923 39.3066 113.81 39.3066C114.542 39.3066 115.08 39.5093 115.424 39.9144C115.771 40.3194 115.946 40.9095 115.946 41.6829V45.8745H114.348V41.8856C114.348 41.4552 114.264 41.1455 114.094 40.9585C113.926 40.7674 113.653 40.6702 113.28 40.6702C112.823 40.6702 112.468 40.822 112.212 41.122C111.955 41.4238 111.829 41.8972 111.829 42.5401V45.8745H110.23Z" fill="#071857"/>
<path d="M117.676 45.8737V36.8359H119.273V41.8534H119.427L121.271 39.4304H122.884V39.5628L120.726 42.3912L123.13 45.726V45.8737H121.448L119.427 43.1549H119.273V45.8737H117.676Z" fill="#071857"/>
</g>
<defs>
<clipPath id="clip0_2381_4577">
<rect width="125" height="46" fill="white"/>
</clipPath>
</defs>
</svg>
